<?xml version="1.0" standalone="no"?>
<!DOCTYPE svg PUBLIC "-//W3C//DTD SVG 20010904//EN"
 "http://www.w3.org/TR/2001/REC-SVG-20010904/DTD/svg10.dtd">
<svg version="1.0" xmlns="http://www.w3.org/2000/svg"
 width="286.000000pt" height="101.000000pt" viewBox="0 0 286.000000 101.000000"
 preserveAspectRatio="xMidYMid meet">
<metadata>
Created by potrace 1.14, written by Peter Selinger 2001-2017
</metadata>
<g transform="translate(0.000000,101.000000) scale(0.100000,-0.100000)"
fill="#000000" stroke="none">
<path d="M581 954 c-50 -41 -119 -155 -180 -296 -32 -73 -75 -171 -97 -217
-36 -80 -39 -83 -46 -55 -3 16 -11 79 -17 141 -13 139 -41 217 -90 250 -47 32
-52 29 -36 -18 22 -61 35 -184 42 -397 l6 -193 42 -25 c23 -13 46 -24 52 -24
25 0 151 234 242 450 61 145 114 237 171 299 22 25 40 50 40 56 0 12 -69 55
-88 55 -6 0 -24 -11 -41 -26z"/>
<path d="M1256 795 c-48 -69 -90 -125 -92 -125 -3 0 -13 20 -23 43 -25 57 -91
111 -91 74 0 -7 16 -50 35 -96 l35 -84 -58 -81 c-64 -89 -112 -163 -112 -171
0 -2 19 -17 41 -32 49 -32 38 -40 123 94 l51 82 90 -182 c49 -100 96 -188 105
-195 22 -19 71 -44 76 -39 2 2 -26 59 -62 128 -69 129 -164 331 -164 349 0 6
45 78 100 160 55 82 100 153 100 158 0 7 -52 42 -62 42 -2 0 -44 -56 -92 -125z"/>
<path d="M696 732 c-40 -14 -58 -29 -98 -81 -33 -43 -47 -69 -42 -80 4 -9 6
-47 5 -84 -3 -94 20 -141 95 -190 106 -69 172 -44 244 95 33 63 49 151 39 211
-10 62 -89 129 -166 142 -15 2 -50 -4 -77 -13z m160 -67 c14 -56 -20 -188 -67
-258 -30 -46 -91 -97 -115 -97 -33 0 -45 140 -19 226 30 101 183 199 201 129z"/>
<path d="M1555 736 c-5 -3 -27 -7 -48 -11 -23 -4 -53 -20 -77 -41 -47 -43 -65
-106 -58 -204 7 -92 34 -135 106 -168 51 -23 63 -24 161 -19 139 7 141 7 141
69 0 44 -2 49 -17 43 -10 -4 -63 -10 -119 -12 -95 -5 -102 -4 -127 18 -34 30
-46 104 -25 164 11 33 20 42 53 53 39 13 125 11 203 -4 l32 -6 0 50 c0 47 -1
50 -30 56 -42 8 -183 17 -195 12z"/>
<path d="M2040 549 l0 -191 28 -28 c22 -21 42 -30 84 -35 83 -10 98 -3 98 49
l0 44 -43 -5 c-61 -7 -77 11 -77 88 l0 59 50 0 50 0 0 45 0 45 -50 0 -50 0 0
40 c0 35 -5 43 -32 60 -59 36 -58 38 -58 -171z"/>
<path d="M1857 613 c-4 -3 -7 -75 -7 -160 l0 -153 50 0 50 0 0 138 0 137 -40
23 c-43 25 -44 25 -53 15z"/>
<path d="M2306 611 c-4 -5 27 -78 69 -162 41 -84 75 -158 75 -166 0 -25 -39
-53 -75 -53 -34 0 -35 -1 -35 -40 0 -34 4 -41 25 -46 59 -15 115 17 150 87 63
124 165 373 157 381 -5 5 -27 8 -48 6 l-39 -3 -44 -109 -45 -109 -43 94 c-23
52 -47 101 -51 109 -10 17 -87 26 -96 11z"/>
</g>
</svg>
